<svg width="40" height="40" viewBox="0 0 40 40" fill="none" xmlns="http://www.w3.org/2000/svg">
<path d="M10.15 35.1C9.708 35.1 9.28408 34.9244 8.97152 34.6118C8.65896 34.2993 8.48336 33.8754 8.48336 33.4333L8.23336 9C8.2133 8.50391 8.2915 8.00874 8.46349 7.54298C8.63547 7.07722 8.89784 6.65006 9.23551 6.28607C9.57317 5.92207 9.97947 5.62842 10.431 5.42201C10.8826 5.2156 11.3705 5.1005 11.8667 5.08333L27.85 5C28.3469 5.00868 28.8372 5.11515 29.2929 5.31335C29.7486 5.51154 30.1608 5.79756 30.5059 6.15508C30.851 6.51261 31.1224 6.93462 31.3044 7.39702C31.4864 7.85942 31.5755 8.35315 31.5667 8.85L31.8 33.2833C31.8029 33.5754 31.729 33.8631 31.5856 34.1176C31.4423 34.372 31.2346 34.5844 30.9834 34.7333C30.73 34.8796 30.4426 34.9566 30.15 34.9566C29.8575 34.9566 29.5701 34.8796 29.3167 34.7333L19.8167 29.4667L11 34.85C10.739 34.9958 10.4485 35.0813 10.15 35.1V35.1ZM19.75 25.85C20.0396 25.8505 20.3251 25.919 20.5834 26.05L28.4334 30.4L28.2334 8.81667C28.2334 8.48333 28.0167 8.25 27.8834 8.26667L11.8834 8.41667C11.75 8.41667 11.5667 8.63333 11.5667 8.96667L11.7667 30.4667L18.9 26.0833C19.1591 25.935 19.4515 25.8547 19.75 25.85V25.85Z" fill="#231F20"/>
</svg>
