<svg width="40" height="40" viewBox="0 0 40 40" fill="none" xmlns="http://www.w3.org/2000/svg">
<path d="M10 35C9.71369 34.9991 9.43243 34.9245 9.18333 34.7833C8.92589 34.6386 8.71152 34.4281 8.56217 34.1733C8.41281 33.9185 8.33384 33.6287 8.33333 33.3333V8.88333C8.3108 7.88386 8.68305 6.91577 9.36939 6.18887C10.0557 5.46197 11.0009 5.03482 12 5H28C28.9991 5.03482 29.9443 5.46197 30.6306 6.18887C31.317 6.91577 31.6892 7.88386 31.6667 8.88333V33.3333C31.6649 33.6242 31.5871 33.9095 31.4409 34.161C31.2947 34.4124 31.0852 34.6212 30.8333 34.7667C30.58 34.9129 30.2926 34.99 30 34.99C29.7074 34.99 29.42 34.9129 29.1667 34.7667L19.7167 29.4167L10.8333 34.75C10.5826 34.9056 10.295 34.9919 10 35Z" fill="#231F20"/>
</svg>
