<svg width="40" height="40" viewBox="0 0 40 40" fill="none" xmlns="http://www.w3.org/2000/svg">
<path d="M16.5282 29.8857C16.2997 29.885 16.0737 29.8373 15.8644 29.7455C15.6551 29.6538 15.4669 29.5199 15.3115 29.3524L7.21154 20.7357C6.90875 20.413 6.74654 19.9833 6.76061 19.541C6.77467 19.0987 6.96386 18.6802 7.28654 18.3774C7.60922 18.0746 8.03896 17.9124 8.48124 17.9265C8.92351 17.9405 9.34208 18.1297 9.64487 18.4524L16.5115 25.769L30.5282 10.4357C30.6704 10.2586 30.8474 10.1124 31.0482 10.0062C31.249 9.8999 31.4694 9.83582 31.6958 9.81785C31.9223 9.79987 32.1501 9.82839 32.3651 9.90163C32.5801 9.97488 32.7779 10.0913 32.9463 10.2438C33.1147 10.3963 33.2502 10.5816 33.3444 10.7883C33.4386 10.995 33.4895 11.2188 33.494 11.4459C33.4986 11.6731 33.4567 11.8987 33.3708 12.1091C33.285 12.3194 33.157 12.51 32.9949 12.669L17.7615 29.3357C17.6076 29.5063 17.4201 29.6432 17.2107 29.7379C17.0013 29.8325 16.7746 29.8829 16.5449 29.8857H16.5282Z" fill="#231F20"/>
</svg>
