<svg width="40" height="40" viewBox="0 0 40 40" fill="none" xmlns="http://www.w3.org/2000/svg">
<path d="M22.3499 19.9999L29.5166 12.8499C29.8304 12.536 30.0067 12.1104 30.0067 11.6665C30.0067 11.2227 29.8304 10.797 29.5166 10.4832C29.2027 10.1694 28.7771 9.99304 28.3332 9.99304C27.8894 9.99304 27.4637 10.1694 27.1499 10.4832L19.9999 17.6499L12.8499 10.4832C12.5361 10.1694 12.1104 9.99304 11.6666 9.99304C11.2227 9.99304 10.7971 10.1694 10.4832 10.4832C10.1694 10.797 9.99308 11.2227 9.99308 11.6665C9.99308 12.1104 10.1694 12.536 10.4832 12.8499L17.6499 19.9999L10.4832 27.1499C10.327 27.3048 10.203 27.4891 10.1184 27.6922C10.0338 27.8953 9.99023 28.1132 9.99023 28.3332C9.99023 28.5532 10.0338 28.7711 10.1184 28.9742C10.203 29.1773 10.327 29.3616 10.4832 29.5165C10.6382 29.6727 10.8225 29.7967 11.0256 29.8813C11.2287 29.966 11.4465 30.0095 11.6666 30.0095C11.8866 30.0095 12.1044 29.966 12.3075 29.8813C12.5106 29.7967 12.695 29.6727 12.8499 29.5165L19.9999 22.3499L27.1499 29.5165C27.3048 29.6727 27.4892 29.7967 27.6923 29.8813C27.8954 29.966 28.1132 30.0095 28.3332 30.0095C28.5533 30.0095 28.7711 29.966 28.9742 29.8813C29.1773 29.7967 29.3616 29.6727 29.5166 29.5165C29.6728 29.3616 29.7968 29.1773 29.8814 28.9742C29.966 28.7711 30.0096 28.5532 30.0096 28.3332C30.0096 28.1132 29.966 27.8953 29.8814 27.6922C29.7968 27.4891 29.6728 27.3048 29.5166 27.1499L22.3499 19.9999Z" fill="#231F20"/>
</svg>
