<svg width="40" height="35" viewBox="0 0 40 35" fill="none" xmlns="http://www.w3.org/2000/svg">
<path d="M20.0001 0C8.95321 0 0.00219726 7.27344 0.00219726 16.25C0.00219726 19.9711 1.55767 23.3789 4.13579 26.1094C2.97329 29.1953 0.552197 31.8031 0.513135 31.832C-0.00444338 32.3789 -0.141162 33.1797 0.151807 33.8633C0.454619 34.5469 1.12353 35 1.87509 35C6.67978 35 10.3985 32.9883 12.7423 31.3867C14.9298 32.0938 17.4454 32.5 20.0001 32.5C31.047 32.5 39.9298 25.2242 39.9298 16.25C39.9298 7.27578 31.047 0 20.0001 0ZM20.0079 28.75C17.9181 28.75 15.8579 28.4277 13.8845 27.8031L12.1071 27.2465L10.5837 28.3207C9.4704 29.1113 7.93681 29.991 6.09149 30.5863C6.66767 29.6395 7.21415 28.5746 7.64462 27.4418L8.47431 25.2543L6.86337 23.5457C5.45477 22.0391 3.75556 19.5469 3.75556 16.25C3.75556 9.35547 11.0407 3.75 20.0056 3.75C28.9704 3.75 36.2556 9.35547 36.2556 16.25C36.2556 23.1445 28.9688 28.75 20.0079 28.75Z" fill="black"/>
</svg>
