<svg width="40" height="40" viewBox="0 0 40 40" fill="none" xmlns="http://www.w3.org/2000/svg">
<path d="M34.0333 16.9667L21.1833 3.83333C21.0283 3.67712 20.844 3.55312 20.6409 3.46851C20.4378 3.3839 20.22 3.34033 20 3.34033C19.7799 3.34033 19.5621 3.3839 19.359 3.46851C19.1559 3.55312 18.9716 3.67712 18.8166 3.83333L5.96661 16.9833C5.65568 17.2968 5.41011 17.6689 5.24416 18.078C5.07822 18.4871 4.99521 18.9252 4.99995 19.3667V33.3333C4.99866 34.1865 5.32457 35.0077 5.91057 35.6278C6.49657 36.2479 7.29805 36.6197 8.14995 36.6667H31.85C32.7018 36.6197 33.5033 36.2479 34.0893 35.6278C34.6753 35.0077 35.0012 34.1865 35 33.3333V19.3667C35.0013 18.4716 34.6546 17.611 34.0333 16.9667ZM16.6666 33.3333V23.3333H23.3333V33.3333H16.6666ZM31.6666 33.3333H26.6666V21.6667C26.6666 21.2246 26.491 20.8007 26.1785 20.4882C25.8659 20.1756 25.442 20 25 20H14.9999C14.5579 20 14.134 20.1756 13.8214 20.4882C13.5089 20.8007 13.3333 21.2246 13.3333 21.6667V33.3333H8.33328V19.3L20 7.38333L31.6666 19.3667V33.3333Z" fill="#231F20"/>
</svg>
