<svg width="40" height="40" viewBox="0 0 40 40" fill="none" xmlns="http://www.w3.org/2000/svg">
<path d="M21.5666 36.6666H18.4166C17.674 36.6666 16.9618 36.3716 16.4367 35.8465C15.9116 35.3214 15.6166 34.6093 15.6166 33.8666V32.05C15.6076 31.9429 15.5683 31.8407 15.5034 31.7551C15.4385 31.6695 15.3506 31.6042 15.2499 31.5666C15.1479 31.5013 15.0294 31.4666 14.9083 31.4666C14.7871 31.4666 14.6686 31.5013 14.5666 31.5666L13.3333 32.9C13.0745 33.1605 12.7669 33.3673 12.4279 33.5084C12.0889 33.6495 11.7254 33.7221 11.3583 33.7221C10.9911 33.7221 10.6276 33.6495 10.2886 33.5084C9.94965 33.3673 9.64196 33.1605 9.38325 32.9L7.09992 30.6666C6.83562 30.4085 6.62571 30.0999 6.48258 29.7593C6.33946 29.4187 6.26601 29.0528 6.26659 28.6833C6.26766 27.9275 6.56716 27.2027 7.09992 26.6666L8.33325 25.4333C8.39279 25.3415 8.42448 25.2344 8.42448 25.125C8.42448 25.0155 8.39279 24.9085 8.33325 24.8166C8.23325 24.5666 8.06658 24.3833 7.83325 24.3833H6.13325C5.38912 24.3789 4.67696 24.0802 4.15233 23.5525C3.62771 23.0247 3.33324 22.3108 3.33325 21.5666V18.4166C3.33325 17.674 3.62825 16.9618 4.15335 16.4367C4.67845 15.9116 5.39065 15.6166 6.13325 15.6166H7.94992C8.05695 15.6076 8.15921 15.5684 8.24479 15.5034C8.33036 15.4385 8.39572 15.3506 8.43325 15.25C8.49859 15.148 8.53332 15.0294 8.53332 14.9083C8.53332 14.7872 8.49859 14.6686 8.43325 14.5666L7.09992 13.3333C6.83939 13.0746 6.63263 12.7669 6.49153 12.428C6.35043 12.089 6.27779 11.7255 6.27779 11.3583C6.27779 10.9912 6.35043 10.6276 6.49153 10.2887C6.63263 9.94971 6.83939 9.64202 7.09992 9.38331L9.33325 7.09998C9.58891 6.83693 9.89462 6.62769 10.2324 6.48457C10.5701 6.34146 10.9331 6.26736 11.2999 6.26665C11.677 6.26499 12.0507 6.33775 12.3996 6.48074C12.7485 6.62374 13.0658 6.83417 13.3333 7.09998L14.5666 8.33331C14.6584 8.39286 14.7655 8.42454 14.8749 8.42454C14.9843 8.42454 15.0914 8.39286 15.1833 8.33331C15.4333 8.23331 15.6166 8.06665 15.6166 7.83331V6.13331C15.621 5.38918 15.9197 4.67702 16.4474 4.15239C16.9752 3.62777 17.6891 3.3333 18.4333 3.33331H21.6666C22.4092 3.33331 23.1214 3.62831 23.6465 4.15341C24.1716 4.67852 24.4666 5.39071 24.4666 6.13331V7.94998C24.4756 8.05701 24.5149 8.15927 24.5798 8.24485C24.6447 8.33042 24.7326 8.39578 24.8333 8.43331C24.9352 8.49865 25.0538 8.53338 25.1749 8.53338C25.296 8.53338 25.4146 8.49865 25.5166 8.43331L26.6666 7.09998C26.9253 6.83945 27.233 6.63269 27.5719 6.49159C27.9109 6.35049 28.2744 6.27785 28.6416 6.27785C29.0087 6.27785 29.3723 6.35049 29.7112 6.49159C30.0502 6.63269 30.3579 6.83945 30.6166 7.09998L32.8999 9.33331C33.1635 9.59208 33.3729 9.9007 33.5159 10.2412C33.659 10.5817 33.7329 10.9473 33.7333 11.3166C33.7413 11.6921 33.6714 12.0652 33.528 12.4123C33.3845 12.7594 33.1707 13.073 32.8999 13.3333L31.6666 14.5666C31.607 14.6585 31.5754 14.7655 31.5754 14.875C31.5754 14.9844 31.607 15.0915 31.6666 15.1833C31.7666 15.4333 31.9332 15.6166 32.1666 15.6166H33.9833C34.7069 15.6509 35.3896 15.9628 35.8893 16.4873C36.389 17.0119 36.6674 17.7088 36.6666 18.4333V21.6666C36.6666 22.4093 36.3716 23.1214 35.8465 23.6465C35.3214 24.1716 34.6092 24.4666 33.8666 24.4666H32.0499C31.9429 24.4757 31.8406 24.5149 31.7551 24.5799C31.6695 24.6448 31.6041 24.7327 31.5666 24.8333C31.507 24.9251 31.4754 25.0322 31.4754 25.1416C31.4754 25.2511 31.507 25.3582 31.5666 25.45L32.8499 26.7333C33.1104 26.992 33.3172 27.2997 33.4583 27.6387C33.5994 27.9776 33.672 28.3412 33.672 28.7083C33.672 29.0755 33.5994 29.439 33.4583 29.778C33.3172 30.1169 33.1104 30.4246 32.8499 30.6833L30.6666 32.9C30.4109 33.163 30.1052 33.3723 29.7675 33.5154C29.4297 33.6585 29.0667 33.7326 28.6999 33.7333C27.9557 33.7235 27.2444 33.4247 26.7166 32.9L25.4333 31.6666C25.3414 31.6071 25.2343 31.5754 25.1249 31.5754C25.0155 31.5754 24.9084 31.6071 24.8166 31.6666C24.5666 31.7666 24.3833 31.9333 24.3833 32.1666V33.9833C24.349 34.707 24.0371 35.3896 23.5126 35.8894C22.988 36.3891 22.2911 36.6675 21.5666 36.6666V36.6666ZM18.9499 33.3333H21.0499V32.05C21.057 31.2814 21.292 30.5322 21.7252 29.8973C22.1584 29.2624 22.7702 28.7703 23.4833 28.4833C24.1992 28.1704 24.9921 28.0777 25.7609 28.2172C26.5297 28.3568 27.2396 28.7221 27.7999 29.2666L28.6999 30.1666L30.1666 28.7L29.2666 27.7833C28.7255 27.2314 28.3605 26.5312 28.2181 25.7716C28.0756 25.0119 28.1621 24.2271 28.4666 23.5166C28.7561 22.8067 29.2493 22.1984 29.8841 21.7683C30.5188 21.3383 31.2666 21.1057 32.0333 21.1H33.3333V18.95H32.0499C31.2813 18.9429 30.5322 18.7079 29.8972 18.2747C29.2623 17.8415 28.7702 17.2297 28.4833 16.5166C28.1703 15.8007 28.0777 15.0078 28.2172 14.239C28.3567 13.4702 28.722 12.7603 29.2666 12.2L30.1666 11.3L28.6999 9.83331L27.7833 10.7333C27.2228 11.2453 26.5277 11.5864 25.7799 11.7166C25.0321 11.8467 24.2626 11.7605 23.5621 11.4681C22.8617 11.1756 22.2593 10.6891 21.8261 10.0658C21.3928 9.44256 21.1466 8.70846 21.1166 7.94998V6.66665H18.9499V7.94998C18.9428 8.71856 18.7078 9.46774 18.2746 10.1027C17.8415 10.7376 17.2296 11.2297 16.5166 11.5166C15.8006 11.8296 15.0077 11.9222 14.2389 11.7827C13.4701 11.6432 12.7603 11.2779 12.1999 10.7333L11.2999 9.83331L9.83325 11.3L10.7333 12.2166C11.2452 12.7771 11.5863 13.4722 11.7165 14.22C11.8467 14.9678 11.7605 15.7373 11.468 16.4378C11.1756 17.1382 10.6891 17.7406 10.0658 18.1738C9.4425 18.6071 8.7084 18.8533 7.94992 18.8833H6.66659V20.9833H7.94992C8.7185 20.9904 9.46768 21.2254 10.1026 21.6586C10.7375 22.0918 11.2296 22.7036 11.5166 23.4166C11.8295 24.1326 11.9222 24.9255 11.7827 25.6943C11.6431 26.4631 11.2778 27.173 10.7333 27.7333L9.83325 28.6333L11.2999 30.1L12.2166 29.2C12.777 28.688 13.4721 28.3469 14.2199 28.2167C14.9678 28.0866 15.7372 28.1728 16.4377 28.4652C17.1382 28.7577 17.7405 29.2442 18.1738 29.8675C18.607 30.4907 18.8532 31.2248 18.8833 31.9833L18.9499 33.3333Z" fill="#231F20"/>
<path d="M19.9998 25.8333C18.8461 25.8333 17.7183 25.4912 16.759 24.8502C15.7997 24.2092 15.0521 23.2982 14.6105 22.2323C14.169 21.1664 14.0535 19.9935 14.2786 18.8619C14.5037 17.7304 15.0592 16.691 15.8751 15.8752C16.6909 15.0594 17.7303 14.5038 18.8618 14.2787C19.9934 14.0536 21.1663 14.1692 22.2322 14.6107C23.2981 15.0522 24.2091 15.7998 24.8501 16.7591C25.4911 17.7184 25.8332 18.8462 25.8332 20C25.8332 21.5471 25.2186 23.0308 24.1246 24.1248C23.0307 25.2187 21.5469 25.8333 19.9998 25.8333V25.8333ZM19.9998 17.5C19.5054 17.5 19.022 17.6466 18.6109 17.9213C18.1998 18.196 17.8794 18.5864 17.6901 19.0433C17.5009 19.5001 17.4514 20.0027 17.5479 20.4877C17.6443 20.9726 17.8824 21.4181 18.2321 21.7677C18.5817 22.1174 19.0272 22.3555 19.5121 22.4519C19.9971 22.5484 20.4997 22.4989 20.9565 22.3097C21.4134 22.1204 21.8038 21.8 22.0785 21.3889C22.3532 20.9778 22.4998 20.4944 22.4998 20C22.4998 19.3369 22.2364 18.701 21.7676 18.2322C21.2988 17.7634 20.6629 17.5 19.9998 17.5Z" fill="#231F20"/>
</svg>
