<svg width="40" height="40" viewBox="0 0 40 40" fill="none" xmlns="http://www.w3.org/2000/svg">
<path d="M20 23.3333C21.841 23.3333 23.3334 21.841 23.3334 20C23.3334 18.1591 21.841 16.6667 20 16.6667C18.1591 16.6667 16.6667 18.1591 16.6667 20C16.6667 21.841 18.1591 23.3333 20 23.3333Z" fill="#231F20"/>
<path d="M31.6666 23.3333C33.5076 23.3333 35 21.841 35 20C35 18.1591 33.5076 16.6667 31.6666 16.6667C29.8257 16.6667 28.3333 18.1591 28.3333 20C28.3333 21.841 29.8257 23.3333 31.6666 23.3333Z" fill="#231F20"/>
<path d="M8.33333 23.3333C10.1743 23.3333 11.6667 21.841 11.6667 20C11.6667 18.1591 10.1743 16.6667 8.33333 16.6667C6.49238 16.6667 5 18.1591 5 20C5 21.841 6.49238 23.3333 8.33333 23.3333Z" fill="#231F20"/>
</svg>
